<svg width="131" height="40" viewBox="0 0 131 40" fill="none" xmlns="http://www.w3.org/2000/svg">
<rect x="0.428711" width="130" height="40" rx="4" fill="#E5ECF4"/>
<path fill-rule="evenodd" clip-rule="evenodd" d="M42.9431 30.5356C42.6192 30.788 42.1335 30.9142 41.4859 30.9142C41.0288 30.9142 40.6002 30.8284 40.2002 30.657C39.8002 30.4856 39.4526 30.2308 39.1573 29.8927C38.8621 29.5546 38.6288 29.1356 38.4573 28.6356C38.2859 28.1356 38.2002 27.5523 38.2002 26.8856V24.5427C38.2002 23.8951 38.2931 23.3213 38.4788 22.8213C38.6645 22.3213 38.9216 21.8999 39.2502 21.557C39.5788 21.2142 39.9716 20.9546 40.4288 20.7784C40.8859 20.6023 41.3907 20.5142 41.9431 20.5142C42.5145 20.5142 43.024 20.607 43.4716 20.7927C43.9192 20.9784 44.3002 21.2356 44.6145 21.5642C44.9288 21.8927 45.1669 22.2784 45.3288 22.7213C45.4907 23.1642 45.5716 23.638 45.5716 24.1427V24.3142H43.6859V24.1427C43.6859 23.5427 43.5311 23.088 43.2216 22.7784C42.9121 22.4689 42.4764 22.3142 41.9145 22.3142C41.3811 22.3142 40.9431 22.4927 40.6002 22.8499C40.2573 23.207 40.0859 23.8189 40.0859 24.6856V26.7999C40.0859 28.3427 40.7145 29.1142 41.9716 29.1142C42.5335 29.1142 42.9597 28.9642 43.2502 28.6642C43.5407 28.3642 43.6859 27.9618 43.6859 27.457H41.2859V25.657H45.5716V30.7142H43.8573V29.5999H43.6002C43.4859 29.9713 43.2669 30.2832 42.9431 30.5356ZM51.441 30.6713C50.9982 30.8332 50.5339 30.9142 50.0482 30.9142C49.5624 30.9142 49.0982 30.8332 48.6553 30.6713C48.2124 30.5094 47.8196 30.2737 47.4767 29.9642C47.1339 29.6546 46.8624 29.2737 46.6624 28.8213C46.4624 28.3689 46.3624 27.8475 46.3624 27.257V27.0856C46.3624 26.5046 46.4624 25.988 46.6624 25.5356C46.8624 25.0832 47.1339 24.6999 47.4767 24.3856C47.8196 24.0713 48.2124 23.8332 48.6553 23.6713C49.0982 23.5094 49.5624 23.4284 50.0482 23.4284C50.5339 23.4284 50.9982 23.5094 51.441 23.6713C51.8839 23.8332 52.2767 24.0713 52.6196 24.3856C52.9624 24.6999 53.2339 25.0832 53.4339 25.5356C53.6339 25.988 53.7339 26.5046 53.7339 27.0856V27.257C53.7339 27.8475 53.6339 28.3689 53.4339 28.8213C53.2339 29.2737 52.9624 29.6546 52.6196 29.9642C52.2767 30.2737 51.8839 30.5094 51.441 30.6713ZM50.0482 29.1999C49.791 29.1999 49.5482 29.157 49.3196 29.0713C49.091 28.9856 48.891 28.8618 48.7196 28.6999C48.5482 28.538 48.4124 28.3404 48.3124 28.107C48.2124 27.8737 48.1624 27.6094 48.1624 27.3142V27.0284C48.1624 26.7332 48.2124 26.4689 48.3124 26.2356C48.4124 26.0023 48.5482 25.8046 48.7196 25.6427C48.891 25.4808 49.091 25.357 49.3196 25.2713C49.5482 25.1856 49.791 25.1427 50.0482 25.1427C50.3053 25.1427 50.5482 25.1856 50.7767 25.2713C51.0053 25.357 51.2053 25.4808 51.3767 25.6427C51.5482 25.8046 51.6839 26.0023 51.7839 26.2356C51.8839 26.4689 51.9339 26.7332 51.9339 27.0284V27.3142C51.9339 27.6094 51.8839 27.8737 51.7839 28.107C51.6839 28.3404 51.5482 28.538 51.3767 28.6999C51.2053 28.8618 51.0053 28.9856 50.7767 29.0713C50.5482 29.157 50.3053 29.1999 50.0482 29.1999ZM59.5461 30.6713C59.1033 30.8332 58.639 30.9142 58.1533 30.9142C57.6675 30.9142 57.2033 30.8332 56.7604 30.6713C56.3175 30.5094 55.9247 30.2737 55.5818 29.9642C55.239 29.6546 54.9675 29.2737 54.7675 28.8213C54.5675 28.3689 54.4675 27.8475 54.4675 27.257V27.0856C54.4675 26.5046 54.5675 25.988 54.7675 25.5356C54.9675 25.0832 55.239 24.6999 55.5818 24.3856C55.9247 24.0713 56.3175 23.8332 56.7604 23.6713C57.2033 23.5094 57.6675 23.4284 58.1533 23.4284C58.639 23.4284 59.1033 23.5094 59.5461 23.6713C59.989 23.8332 60.3818 24.0713 60.7247 24.3856C61.0675 24.6999 61.339 25.0832 61.539 25.5356C61.739 25.988 61.839 26.5046 61.839 27.0856V27.257C61.839 27.8475 61.739 28.3689 61.539 28.8213C61.339 29.2737 61.0675 29.6546 60.7247 29.9642C60.3818 30.2737 59.989 30.5094 59.5461 30.6713ZM58.1533 29.1999C57.8961 29.1999 57.6533 29.157 57.4247 29.0713C57.1961 28.9856 56.9961 28.8618 56.8247 28.6999C56.6533 28.538 56.5175 28.3404 56.4175 28.107C56.3175 27.8737 56.2675 27.6094 56.2675 27.3142V27.0284C56.2675 26.7332 56.3175 26.4689 56.4175 26.2356C56.5175 26.0023 56.6533 25.8046 56.8247 25.6427C56.9961 25.4808 57.1961 25.357 57.4247 25.2713C57.6533 25.1856 57.8961 25.1427 58.1533 25.1427C58.4104 25.1427 58.6533 25.1856 58.8818 25.2713C59.1104 25.357 59.3104 25.4808 59.4818 25.6427C59.6533 25.8046 59.789 26.0023 59.889 26.2356C59.989 26.4689 60.039 26.7332 60.039 27.0284V27.3142C60.039 27.6094 59.989 27.8737 59.889 28.107C59.789 28.3404 59.6533 28.538 59.4818 28.6999C59.3104 28.8618 59.1104 28.9856 58.8818 29.0713C58.6533 29.157 58.4104 29.1999 58.1533 29.1999ZM69.5512 33.257C69.3465 33.4665 69.0822 33.5713 68.7584 33.5713H63.9869V31.857H67.6726C67.9298 31.857 68.0584 31.7142 68.0584 31.4284V29.6856H67.8012C67.725 29.8475 67.6322 30.0023 67.5226 30.1499C67.4131 30.2975 67.2703 30.4284 67.0941 30.5427C66.9179 30.657 66.7084 30.7475 66.4655 30.8142C66.2226 30.8808 65.9298 30.9142 65.5869 30.9142C65.1488 30.9142 64.7417 30.8356 64.3655 30.6784C63.9893 30.5213 63.6607 30.288 63.3798 29.9784C63.0988 29.6689 62.8798 29.2904 62.7226 28.8427C62.5655 28.3951 62.4869 27.8808 62.4869 27.2999V27.0427C62.4869 26.4713 62.5703 25.9618 62.7369 25.5142C62.9036 25.0665 63.1322 24.688 63.4226 24.3784C63.7131 24.0689 64.0512 23.8332 64.4369 23.6713C64.8226 23.5094 65.2298 23.4284 65.6584 23.4284C66.2298 23.4284 66.6822 23.5356 67.0155 23.7499C67.3488 23.9642 67.6107 24.2665 67.8012 24.657H68.0584V23.6284H69.8584V32.457C69.8584 32.7808 69.756 33.0475 69.5512 33.257ZM66.1726 29.1999C65.6107 29.1999 65.156 29.0261 64.8084 28.6784C64.4607 28.3308 64.2869 27.857 64.2869 27.257V27.0856C64.2869 26.4856 64.4607 26.0118 64.8084 25.6642C65.156 25.3165 65.6107 25.1427 66.1726 25.1427C66.7345 25.1427 67.1893 25.3213 67.5369 25.6784C67.8845 26.0356 68.0584 26.5046 68.0584 27.0856V27.257C68.0584 27.838 67.8845 28.307 67.5369 28.6642C67.1893 29.0213 66.7345 29.1999 66.1726 29.1999ZM77.6635 28.9999V30.7142H71.0635V28.9999H73.5492V22.4284H71.1492V20.7142H75.3492V28.9999H77.6635ZM82.54 30.9142C83.0067 30.9142 83.4138 30.8618 83.7614 30.757C84.109 30.6523 84.4043 30.5189 84.6471 30.357C84.89 30.1951 85.0876 30.0165 85.24 29.8213C85.3924 29.6261 85.5114 29.438 85.5971 29.257L84.0543 28.3999C83.9495 28.6189 83.7781 28.807 83.54 28.9642C83.3019 29.1213 82.959 29.1999 82.5114 29.1999C82.2828 29.1999 82.0662 29.1642 81.8614 29.0927C81.6567 29.0213 81.4757 28.9213 81.3186 28.7927C81.1614 28.6642 81.0376 28.5118 80.9471 28.3356C80.8567 28.1594 80.8067 27.9665 80.7971 27.757H85.9971V26.7999C85.9971 26.4284 85.9305 26.0451 85.7971 25.6499C85.6638 25.2546 85.4543 24.8927 85.1686 24.5642C84.8828 24.2356 84.5209 23.9642 84.0828 23.7499C83.6448 23.5356 83.1209 23.4284 82.5114 23.4284C82.0162 23.4284 81.5519 23.5165 81.1186 23.6927C80.6852 23.8689 80.3067 24.1142 79.9828 24.4284C79.659 24.7427 79.4043 25.1237 79.2186 25.5713C79.0328 26.0189 78.94 26.5142 78.94 27.057V27.1427C78.94 27.7332 79.0281 28.2618 79.2043 28.7284C79.3805 29.1951 79.6281 29.5904 79.9471 29.9142C80.2662 30.238 80.6448 30.4856 81.0828 30.657C81.5209 30.8284 82.0067 30.9142 82.54 30.9142ZM80.8257 26.2142H84.1686C84.1114 25.8808 83.9328 25.6046 83.6329 25.3856C83.3328 25.1665 82.9543 25.057 82.4971 25.057C82.04 25.057 81.6686 25.1737 81.3829 25.407C81.0971 25.6404 80.9114 25.9094 80.8257 26.2142ZM89.1165 30.7142V26.9427H91.1451C91.6594 26.9427 92.107 26.857 92.488 26.6856C92.8689 26.5142 93.1856 26.288 93.438 26.007C93.6903 25.7261 93.8808 25.407 94.0094 25.0499C94.138 24.6927 94.2022 24.3284 94.2022 23.957V23.6142C94.2022 23.2523 94.138 22.8975 94.0094 22.5499C93.8808 22.2023 93.6903 21.8927 93.438 21.6213C93.1856 21.3499 92.8689 21.1308 92.488 20.9642C92.107 20.7975 91.6594 20.7142 91.1451 20.7142H87.2308V30.7142H89.1165ZM89.1165 25.1427H90.9594C91.3784 25.1427 91.7094 25.0284 91.9522 24.7999C92.1951 24.5713 92.3165 24.2761 92.3165 23.9142V23.7427C92.3165 23.3808 92.1951 23.0856 91.9522 22.857C91.7094 22.6284 91.3784 22.5142 90.9594 22.5142H89.1165V25.1427ZM101.979 30.7142V28.9999H99.6645V20.7142H95.4645V22.4284H97.8645V28.9999H95.3788V30.7142H101.979ZM107.312 30.6356C106.97 30.8213 106.57 30.9142 106.112 30.9142C105.684 30.9142 105.281 30.8332 104.905 30.6713C104.529 30.5094 104.198 30.2713 103.912 29.957C103.627 29.6427 103.401 29.2618 103.234 28.8142C103.067 28.3665 102.984 27.857 102.984 27.2856V27.057C102.984 26.4951 103.065 25.9904 103.227 25.5427C103.389 25.0951 103.608 24.7142 103.884 24.3999C104.16 24.0856 104.481 23.8451 104.848 23.6784C105.215 23.5118 105.608 23.4284 106.027 23.4284C106.531 23.4284 106.939 23.5142 107.248 23.6856C107.558 23.857 107.803 24.1237 107.984 24.4856H108.241V23.6284H110.041V28.5713C110.041 28.857 110.17 28.9999 110.427 28.9999H110.698V30.7142H109.47C109.146 30.7142 108.881 30.6189 108.677 30.4284C108.472 30.238 108.37 29.9904 108.37 29.6856H108.112C107.922 30.1332 107.655 30.4499 107.312 30.6356ZM106.512 29.1999C105.989 29.1999 105.57 29.0261 105.255 28.6784C104.941 28.3308 104.784 27.857 104.784 27.257V27.0856C104.784 26.4856 104.941 26.0118 105.255 25.6642C105.57 25.3165 105.989 25.1427 106.512 25.1427C107.036 25.1427 107.455 25.3165 107.77 25.6642C108.084 26.0118 108.241 26.4856 108.241 27.0856V27.257C108.241 27.857 108.084 28.3308 107.77 28.6784C107.455 29.0261 107.036 29.1999 106.512 29.1999ZM117.925 33.257C117.72 33.4665 117.456 33.5713 117.132 33.5713H112.918V31.857H116.046C116.303 31.857 116.432 31.7142 116.432 31.4284V29.6856H116.175C115.86 30.5046 115.184 30.9142 114.146 30.9142C113.794 30.9142 113.465 30.857 113.16 30.7427C112.856 30.6284 112.589 30.4523 112.36 30.2142C112.132 29.9761 111.953 29.6784 111.825 29.3213C111.696 28.9642 111.632 28.5427 111.632 28.057V23.6284H113.432V27.6856C113.432 28.1904 113.551 28.5832 113.789 28.8642C114.027 29.1451 114.384 29.2856 114.86 29.2856C115.403 29.2856 115.801 29.1118 116.053 28.7642C116.306 28.4165 116.432 27.9427 116.432 27.3427V23.6284H118.232V32.457C118.232 32.7808 118.129 33.0475 117.925 33.257Z" fill="#495567"/>
<path fill-rule="evenodd" clip-rule="evenodd" d="M56.0464 9.65744C56.1369 9.65744 56.2238 9.63958 56.3071 9.60386C56.3905 9.56815 56.4631 9.52053 56.525 9.46101C56.5869 9.40148 56.6357 9.33005 56.6714 9.24672C56.7071 9.16339 56.725 9.0741 56.725 8.97886C56.725 8.88363 56.7071 8.79434 56.6714 8.71101C56.6357 8.62767 56.5869 8.55625 56.525 8.49672C56.4631 8.4372 56.3905 8.38958 56.3071 8.35386C56.2238 8.31815 56.1369 8.30029 56.0464 8.30029C55.9512 8.30029 55.8631 8.31815 55.7821 8.35386C55.7012 8.38958 55.6298 8.4372 55.5679 8.49672C55.506 8.55625 55.4571 8.62767 55.4214 8.71101C55.3857 8.79434 55.3679 8.88363 55.3679 8.97886C55.3679 9.0741 55.3857 9.16339 55.4214 9.24672C55.4571 9.33005 55.506 9.40148 55.5679 9.46101C55.6298 9.52053 55.7012 9.56815 55.7821 9.60386C55.8631 9.63958 55.9512 9.65744 56.0464 9.65744ZM40.2577 13.4824C40.0958 13.6086 39.8529 13.6717 39.5291 13.6717C39.3005 13.6717 39.0862 13.6289 38.8862 13.5432C38.6862 13.4574 38.5124 13.3301 38.3648 13.161C38.2172 12.992 38.1005 12.7824 38.0148 12.5324C37.9291 12.2824 37.8862 11.9908 37.8862 11.6574V10.486C37.8862 10.1622 37.9327 9.87529 38.0255 9.62529C38.1184 9.37529 38.2469 9.16458 38.4112 8.99315C38.5755 8.82172 38.7719 8.69196 39.0005 8.60386C39.2291 8.51577 39.4815 8.47172 39.7577 8.47172C40.0434 8.47172 40.2981 8.51815 40.5219 8.61101C40.7458 8.70386 40.9362 8.83244 41.0934 8.99672C41.2505 9.16101 41.3696 9.35386 41.4505 9.57529C41.5315 9.79672 41.5719 10.0336 41.5719 10.286V10.3717H40.6291V10.286C40.6291 9.98601 40.5517 9.75863 40.3969 9.60386C40.2422 9.4491 40.0243 9.37172 39.7434 9.37172C39.4767 9.37172 39.2577 9.46101 39.0862 9.63958C38.9148 9.81815 38.8291 10.1241 38.8291 10.5574V11.6146C38.8291 12.386 39.1434 12.7717 39.7719 12.7717C40.0529 12.7717 40.266 12.6967 40.4112 12.5467C40.5565 12.3967 40.6291 12.1955 40.6291 11.9432H39.4291V11.0432H41.5719V13.5717H40.7148V13.0146H40.5862C40.5291 13.2003 40.4196 13.3562 40.2577 13.4824ZM44.4566 13.5932C44.2828 13.6455 44.0793 13.6717 43.8459 13.6717C43.5793 13.6717 43.3364 13.6289 43.1174 13.5431C42.8983 13.4574 42.709 13.3336 42.5495 13.1717C42.39 13.0098 42.2662 12.8122 42.1781 12.5789C42.09 12.3455 42.0459 12.0812 42.0459 11.786V11.7432C42.0459 11.4717 42.0924 11.2241 42.1852 11.0003C42.2781 10.7765 42.4054 10.586 42.5674 10.4289C42.7293 10.2717 42.9185 10.1491 43.1352 10.061C43.3519 9.97291 43.584 9.92886 43.8316 9.92886C44.1364 9.92886 44.3983 9.98244 44.6174 10.0896C44.8364 10.1967 45.0174 10.3324 45.1602 10.4967C45.3031 10.661 45.4078 10.842 45.4745 11.0396C45.5412 11.2372 45.5745 11.4289 45.5745 11.6146V12.0932H42.9745C42.9793 12.1979 43.0043 12.2943 43.0495 12.3824C43.0947 12.4705 43.1566 12.5467 43.2352 12.611C43.3138 12.6753 43.4043 12.7253 43.5066 12.761C43.609 12.7967 43.7174 12.8146 43.8316 12.8146C44.0554 12.8146 44.2269 12.7753 44.3459 12.6967C44.465 12.6182 44.5507 12.5241 44.6031 12.4146L45.3745 12.8432C45.3316 12.9336 45.2721 13.0277 45.1959 13.1253C45.1197 13.2229 45.0209 13.3122 44.8995 13.3931C44.7781 13.4741 44.6304 13.5408 44.4566 13.5932ZM44.6602 11.3217H42.9888C43.0316 11.1693 43.1245 11.0348 43.2674 10.9182C43.4102 10.8015 43.5959 10.7432 43.8245 10.7432C44.0531 10.7432 44.2424 10.7979 44.3924 10.9074C44.5424 11.017 44.6316 11.1551 44.6602 11.3217ZM49.2342 12.7146V13.5717H47.7342C47.5723 13.5717 47.4401 13.5193 47.3378 13.4146C47.2354 13.3098 47.1842 13.1765 47.1842 13.0146V10.886H46.1342V10.0289H47.1842V8.57172H48.0842V10.0289H49.3628V10.886H48.0842V12.5003C48.0842 12.6432 48.1485 12.7146 48.277 12.7146H49.2342ZM57.5322 12.7146V13.5717H54.4036V12.7146H55.6036V10.886H54.4893V10.0289H56.5036V12.7146H57.5322ZM61.3918 13.5717V12.7146H60.4347C60.3061 12.7146 60.2418 12.6432 60.2418 12.5003V10.886H61.5204V10.0289H60.2418V8.57172H59.3418V10.0289H58.2918V10.886H59.3418V13.0146C59.3418 13.1765 59.393 13.3098 59.4954 13.4146C59.5978 13.5193 59.7299 13.5717 59.8918 13.5717H61.3918ZM68.8219 13.5503C68.6005 13.6312 68.3684 13.6717 68.1255 13.6717C67.8827 13.6717 67.6505 13.6312 67.4291 13.5503C67.2077 13.4693 67.0112 13.3515 66.8398 13.1967C66.6684 13.042 66.5327 12.8515 66.4327 12.6253C66.3327 12.3991 66.2827 12.1384 66.2827 11.8432V11.7574C66.2827 11.467 66.3327 11.2086 66.4327 10.9824C66.5327 10.7562 66.6684 10.5646 66.8398 10.4074C67.0112 10.2503 67.2077 10.1312 67.4291 10.0503C67.6505 9.96934 67.8827 9.92886 68.1255 9.92886C68.3684 9.92886 68.6005 9.96934 68.8219 10.0503C69.0434 10.1312 69.2398 10.2503 69.4112 10.4074C69.5827 10.5646 69.7184 10.7562 69.8184 10.9824C69.9184 11.2086 69.9684 11.467 69.9684 11.7574V11.8432C69.9684 12.1384 69.9184 12.3991 69.8184 12.6253C69.7184 12.8515 69.5827 13.042 69.4112 13.1967C69.2398 13.3515 69.0434 13.4693 68.8219 13.5503ZM68.1255 12.8146C67.9969 12.8146 67.8755 12.7931 67.7612 12.7503C67.6469 12.7074 67.5469 12.6455 67.4612 12.5646C67.3755 12.4836 67.3077 12.3848 67.2577 12.2681C67.2077 12.1515 67.1827 12.0193 67.1827 11.8717V11.7289C67.1827 11.5812 67.2077 11.4491 67.2577 11.3324C67.3077 11.2158 67.3755 11.117 67.4612 11.036C67.5469 10.9551 67.6469 10.8932 67.7612 10.8503C67.8755 10.8074 67.9969 10.786 68.1255 10.786C68.2541 10.786 68.3755 10.8074 68.4898 10.8503C68.6041 10.8932 68.7041 10.9551 68.7898 11.036C68.8755 11.117 68.9434 11.2158 68.9934 11.3324C69.0434 11.4491 69.0684 11.5812 69.0684 11.7289V11.8717C69.0684 12.0193 69.0434 12.1515 68.9934 12.2681C68.9434 12.3848 68.8755 12.4836 68.7898 12.5646C68.7041 12.6455 68.6041 12.7074 68.4898 12.7503C68.3755 12.7931 68.2541 12.8146 68.1255 12.8146ZM71.4495 11.7289V13.5717H70.5495V10.0289H71.4495V10.5574H71.5781C71.659 10.3574 71.79 10.2027 71.9709 10.0932C72.1519 9.98363 72.3638 9.92886 72.6066 9.92886C72.7781 9.92886 72.9388 9.95625 73.0888 10.011C73.2388 10.0658 73.3709 10.1503 73.4852 10.2646C73.5995 10.3789 73.6888 10.5241 73.7531 10.7003C73.8174 10.8765 73.8495 11.086 73.8495 11.3289V13.5717H72.9495V11.5574C72.9495 11.3051 72.8888 11.1062 72.7674 10.961C72.6459 10.8158 72.4709 10.7431 72.2424 10.7431C71.9757 10.7431 71.7769 10.8324 71.6459 11.011C71.515 11.1896 71.4495 11.4289 71.4495 11.7289Z" fill="#495567"/>
<path fill-rule="evenodd" clip-rule="evenodd" d="M12.8233 10.1694C13.341 9.91976 13.9346 9.94657 14.4326 10.2464L24.3411 16.0164L21.5031 18.8677L12.8233 10.1694ZM11.8574 11.7296C11.8574 11.4641 11.9163 11.2062 12.0258 10.9744L20.7037 19.6708L12.0273 28.3884C11.9167 28.1614 11.8574 27.9073 11.8574 27.6407V11.7296ZM21.5043 20.4728L12.8385 29.1798C13.0684 29.2863 13.3131 29.3327 13.5574 29.3327C13.8591 29.3327 14.16 29.2606 14.4327 29.0967L24.343 23.318L21.5043 20.4728ZM28.1043 18.2076C28.1077 18.2095 28.1115 18.2118 28.1149 18.214C28.6265 18.5244 28.932 19.0674 28.932 19.6663C28.932 20.2651 28.6265 20.8081 28.1149 21.1189L25.355 22.7278L22.3033 19.6697L25.3531 16.6055L28.1043 18.2076Z" fill="#495567"/>
</svg>
